# xmcd
#
# Track frame offsets:
#	150
#	15812
#	31200
#	42303
#	54337
#	71629
#	84770
#	97717
#	113219
#	124097
#
# Disc length: 1850 seconds
#
# Revision: 1
# Processed by: cddbd v1.5.2PL0 Copyright (c) Steve Scherf et al.
# Submitted via: audiograbber 1.83.01
#
DISCID=6907380a
DTITLE=George Jones - Jones Country
DYEAR=1983
DGENRE=Country
TTITLE0=Radio Lover
TTITLE1=Dream On
TTITLE2=Hello Trouble
TTITLE3=Burning Bridges
TTITLE4=Wino The Clown
TTITLE5=You Must Have Walked Across My Mind Again
TTITLE6=I'd Rather Die Young
TTITLE7=The Girl At The End Of The Bar
TTITLE8=One Of These Days
TTITLE9=Famous Last Words
EXTD=
EXTT0=
EXTT1=
EXTT2=
EXTT3=
EXTT4=
EXTT5=
EXTT6=
EXTT7=
EXTT8=
EXTT9=
PLAYORDER=
